<svg xmlns="http://www.w3.org/2000/svg" width="128" height="128" viewBox="0 0 128 128">
  <defs>
    <linearGradient id="g" x1="0%" y1="0%" x2="100%" y2="100%">
      <stop offset="0%" style="stop-color:#00ff88"/>
      <stop offset="100%" style="stop-color:#00cc6a"/>
    </linearGradient>
  </defs>
  <rect width="128" height="128" rx="28" fill="#0a0a16"/>
  <path d="M64 18c-16.57 0-30 13.43-30 30 0 22.5 30 52 30 52s30-29.5 30-52c0-16.57-13.43-30-30-30zm0 42a12 12 0 1 1 0-24 12 12 0 0 1 0 24z" fill="url(#g)"/>
  <path d="M44 80l10 14M84 80l-10 14M54 94h20" stroke="#00ff88" stroke-width="3" fill="none" stroke-linecap="round" stroke-linejoin="round" opacity="0.6"/>
</svg>
